<svg xmlns="http://www.w3.org/2000/svg" viewBox="0 0 96 16"><title>glbinding-logo</title><polygon points="8.982 14.347 12.647 8 11.425 5.884 8.982 10.116 5.318 3.769 15.089 3.769 16.311 1.653 1.654 1.653 8.982 14.347" style="fill:#f25c05"/><polygon points="21.197 14.347 19.975 12.231 15.089 12.231 19.975 3.769 18.754 1.653 11.425 14.347 21.197 14.347" style="fill:#f25c05"/><path d="M25.1914,11.478h-.0445l-.1479.7686H23.6538V1.8081h1.7v2.69L25.31,5.7114a3.3147,3.3147,0,0,1,2.1-.9023c1.8188,0,2.8686,1.4492,2.8686,3.6816,0,2.499-1.4936,3.9336-3.1055,3.9336A2.9035,2.9035,0,0,1,25.1914,11.478ZM28.518,8.521c0-1.4492-.4731-2.3066-1.5673-2.3066a2.3187,2.3187,0,0,0-1.5967.8125v3.3867a2.2672,2.2672,0,0,0,1.4638.6054C27.7788,11.019,28.518,10.1616,28.518,8.521Z" style="fill:#f25c05"/><path d="M31.7846,2.7544a1.0539,1.0539,0,1,1,1.05.9609A.9763.9763,0,0,1,31.7846,2.7544Zm.1924,2.2324h1.7v7.26h-1.7Z" style="fill:#f25c05"/><path d="M35.8506,4.9868h1.4043l.1186.9756h.0591a3.3717,3.3717,0,0,1,2.38-1.1533c1.5522,0,2.2324,1.05,2.2324,2.8838v4.5537h-1.7V7.9146c0-1.1983-.34-1.6417-1.1387-1.6417a2.2989,2.2989,0,0,0-1.6557.9024v5.0713h-1.7Z" style="fill:#f25c05"/><path d="M43.686,8.6245c0-2.3662,1.4932-3.8154,3.0757-3.8154a2.68,2.68,0,0,1,1.9072.7988L48.61,4.44V1.8081h1.7V12.2466H48.9052l-.1181-.7832H48.728a3.0252,3.0252,0,0,1-2.0552.9609C44.854,12.4243,43.686,11.019,43.686,8.6245Zm4.9238,1.582V6.82a2.1649,2.1649,0,0,0-1.4785-.6054c-.9316,0-1.6855.872-1.6855,2.3945,0,1.5674.5913,2.41,1.6411,2.41A1.9605,1.9605,0,0,0,48.61,10.2065Z" style="fill:#f25c05"/><path d="M52.2759,2.7544a1.0539,1.0539,0,1,1,1.05.9609A.9763.9763,0,0,1,52.2759,2.7544Zm.1923,2.2324h1.7v7.26h-1.7Z" style="fill:#f25c05"/><path d="M56.3418,4.9868h1.4043l.1186.9756h.0591a3.3717,3.3717,0,0,1,2.38-1.1533c1.5522,0,2.2324,1.05,2.2324,2.8838v4.5537h-1.7V7.9146c0-1.1983-.34-1.6417-1.1387-1.6417a2.2989,2.2989,0,0,0-1.6557.9024v5.0713h-1.7Z" style="fill:#f25c05"/><path d="M64.1328,13.563A1.87,1.87,0,0,1,65.1679,12.01v-.06a1.3646,1.3646,0,0,1-.65-1.2119,1.75,1.75,0,0,1,.7984-1.3457v-.06A2.45,2.45,0,0,1,64.37,7.4116a2.6354,2.6354,0,0,1,2.8682-2.6025,3.2727,3.2727,0,0,1,1.0649.1777h2.6021V6.2437H69.5742a1.9422,1.9422,0,0,1,.4141,1.2275A2.4622,2.4622,0,0,1,67.2378,9.94a2.685,2.685,0,0,1-.9908-.1923.8357.8357,0,0,0-.3545.6953c0,.414.2955.665,1.1827.665h1.2866c1.7446,0,2.6611.5322,2.6611,1.7891,0,1.4345-1.5078,2.5586-3.8735,2.5586C65.4194,15.4556,64.1328,14.8345,64.1328,13.563Zm5.249-.3848c0-.5615-.4585-.7246-1.2861-.7246H67.105a3.8305,3.8305,0,0,1-.9908-.1035,1.2223,1.2223,0,0,0-.562.9609c0,.65.71,1.0352,1.8633,1.0352C68.5835,14.3462,69.3818,13.7993,69.3818,13.1782Zm-.8872-5.7666a1.2743,1.2743,0,1,0-2.5283,0,1.2778,1.2778,0,1,0,2.5283,0Z" style="fill:#f25c05"/></svg>