<?xml version="1.0" encoding="utf-8"?>
<!-- Generator: Adobe Illustrator 17.1.0, SVG Export Plug-In . SVG Version: 6.00 Build 0)  -->
<!DOCTYPE svg PUBLIC "-//W3C//DTD SVG 1.1//EN" "http://www.w3.org/Graphics/SVG/1.1/DTD/svg11.dtd">
<svg version="1.1" id="Layer_1" xmlns="http://www.w3.org/2000/svg" xmlns:xlink="http://www.w3.org/1999/xlink" x="0px" y="0px"
	 viewBox="0 0 187 64" enable-background="new 0 0 187 64" xml:space="preserve">
<path fill="#F15E22" d="M44.6,49.9v-9.6c0-1.9-1.6-3.5-3.5-3.5h-2.6c-1.9,0-3.5-1.6-3.5-3.5v-2.6c0-1.9,1.6-3.5,3.5-3.5h12.3
	c1.9,0,3.5,1.6,3.5,3.5l0,29.2c0,2-1.7,3.6-3.7,3.5C22.5,61.9,0.5,48.4,0.5,32c0-16.4,22-29.9,50.1-31.5c2-0.1,3.7,1.5,3.7,3.5v0.5
	c0,1.7-1.3,3.2-3,3.5c-20.1,2.8-34.6,11.8-35.1,23.7c0,0-1.4,14.5,24,21.6C42.4,53.9,44.6,52.2,44.6,49.9z"/>
<path fill="#F15E22" d="M58.1,60c0,2,1.7,3.6,3.7,3.5c21-1.3,35.2-8,42.9-16.4c0.9-1.3-1-0.1-1.1-0.1c-10.7,6-16.7,8.3-32,9.1
	c-2,0.1-3.7-1.5-3.7-3.5V4.1c0-1.9-1.5-3.4-3.3-3.5c-0.9,0-1.8-0.1-2.7-0.1c-2-0.1-3.6,1.5-3.6,3.5V60z"/>
<path fill="#F15E22" d="M87,34c0,2.8-0.7,5-2,6.5c-1.3,1.6-3.3,2.4-6,2.4c-2.3,0-4.6-0.2-6.7-0.6c-0.3,0-0.5-0.1-0.6-0.3
	c-0.1-0.1-0.1-0.3-0.1-0.6V16.3c0-0.5,0.2-0.7,0.7-0.7h1.9c0.2,0,0.4,0.1,0.5,0.2c0.1,0.1,0.2,0.3,0.2,0.5V23
	c1.3-0.2,2.7-0.4,4.3-0.4c2.6,0,4.6,0.8,5.9,2.3c1.3,1.5,2,3.7,2,6.5V34z M83.8,34v-2.6c0-2-0.4-3.5-1.1-4.5c-0.7-1-1.9-1.5-3.7-1.5
	c-1.9,0-3.3,0.1-4.3,0.3v14.3c1.7,0.1,3.1,0.2,4.3,0.2c1.7,0,2.9-0.5,3.7-1.5C83.4,37.6,83.8,36,83.8,34z"/>
<path fill="#F15E22" d="M94.9,19c0,0.2-0.1,0.4-0.2,0.5c-0.1,0.1-0.3,0.2-0.5,0.2h-1.9c-0.2,0-0.4-0.1-0.5-0.2
	c-0.1-0.1-0.2-0.3-0.2-0.5v-2.9c0-0.2,0.1-0.4,0.2-0.5c0.1-0.1,0.3-0.2,0.5-0.2h1.9c0.2,0,0.4,0.1,0.5,0.2c0.1,0.1,0.2,0.3,0.2,0.5
	V19z M94.9,41.9c0,0.2-0.1,0.4-0.2,0.5c-0.1,0.1-0.3,0.2-0.5,0.2h-1.8c-0.2,0-0.4-0.1-0.5-0.2c-0.1-0.1-0.2-0.3-0.2-0.5V23.6
	c0-0.2,0.1-0.4,0.2-0.5c0.1-0.1,0.3-0.2,0.5-0.2h1.8c0.2,0,0.4,0.1,0.5,0.2c0.1,0.1,0.2,0.3,0.2,0.5V41.9z"/>
<path fill="#F15E22" d="M115.6,41.9c0,0.2-0.1,0.4-0.2,0.5c-0.1,0.1-0.3,0.2-0.5,0.2h-1.8c-0.2,0-0.4-0.1-0.5-0.2
	c-0.1-0.1-0.2-0.3-0.2-0.5V30.1c0-1.8-0.3-3-0.9-3.7c-0.6-0.7-1.6-1-3.1-1c-1.4,0-3,0.5-4.9,1.4v15.2c0,0.2-0.1,0.4-0.2,0.5
	c-0.1,0.1-0.3,0.2-0.5,0.2H101c-0.2,0-0.4-0.1-0.5-0.2c-0.1-0.1-0.2-0.3-0.2-0.5V23.6c0-0.2,0.1-0.4,0.2-0.5
	c0.1-0.1,0.3-0.2,0.5-0.2h1.8c0.2,0,0.4,0.1,0.5,0.2c0.1,0.1,0.2,0.3,0.2,0.5v0.7c2-1.1,3.9-1.7,5.8-1.7c4.2,0,6.3,2.5,6.3,7.5V41.9
	z"/>
<path fill="#F15E22" d="M135.3,41.4c0,0.3,0,0.5-0.1,0.6c-0.1,0.1-0.3,0.2-0.6,0.3c-2.1,0.4-4.4,0.6-6.7,0.6c-2.6,0-4.6-0.8-6-2.4
	c-1.3-1.6-2-3.7-2-6.5v-2.6c0-2.9,0.7-5,2-6.5c1.3-1.5,3.3-2.3,5.9-2.3c1.5,0,2.9,0.1,4.3,0.4v-6.7c0-0.2,0.1-0.4,0.2-0.5
	c0.1-0.1,0.3-0.2,0.5-0.2h1.9c0.2,0,0.4,0.1,0.5,0.2c0.1,0.1,0.2,0.3,0.2,0.5V41.4z M132.1,39.9V25.6c-0.9-0.2-2.4-0.3-4.3-0.3
	c-1.7,0-2.9,0.5-3.7,1.5c-0.7,1-1.1,2.5-1.1,4.5V34c0,2.1,0.4,3.6,1.1,4.6c0.7,1,1.9,1.5,3.7,1.5C129.1,40.1,130.5,40,132.1,39.9z"
	/>
<path fill="#F15E22" d="M144,19c0,0.2-0.1,0.4-0.2,0.5c-0.1,0.1-0.3,0.2-0.5,0.2h-1.9c-0.2,0-0.4-0.1-0.5-0.2
	c-0.1-0.1-0.2-0.3-0.2-0.5v-2.9c0-0.2,0.1-0.4,0.2-0.5c0.1-0.1,0.3-0.2,0.5-0.2h1.9c0.2,0,0.4,0.1,0.5,0.2c0.1,0.1,0.2,0.3,0.2,0.5
	V19z M143.9,41.9c0,0.2-0.1,0.4-0.2,0.5c-0.1,0.1-0.3,0.2-0.5,0.2h-1.8c-0.2,0-0.4-0.1-0.5-0.2c-0.1-0.1-0.2-0.3-0.2-0.5V23.6
	c0-0.2,0.1-0.4,0.2-0.5c0.1-0.1,0.3-0.2,0.5-0.2h1.8c0.2,0,0.4,0.1,0.5,0.2c0.1,0.1,0.2,0.3,0.2,0.5V41.9z"/>
<path fill="#F15E22" d="M164.7,41.9c0,0.2-0.1,0.4-0.2,0.5c-0.1,0.1-0.3,0.2-0.5,0.2h-1.8c-0.2,0-0.4-0.1-0.5-0.2
	c-0.1-0.1-0.2-0.3-0.2-0.5V30.1c0-1.8-0.3-3-0.9-3.7c-0.6-0.7-1.6-1-3.1-1c-1.4,0-3,0.5-4.9,1.4v15.2c0,0.2-0.1,0.4-0.2,0.5
	c-0.1,0.1-0.3,0.2-0.5,0.2H150c-0.2,0-0.4-0.1-0.5-0.2c-0.1-0.1-0.2-0.3-0.2-0.5V23.6c0-0.2,0.1-0.4,0.2-0.5
	c0.1-0.1,0.3-0.2,0.5-0.2h1.8c0.2,0,0.4,0.1,0.5,0.2c0.1,0.1,0.2,0.3,0.2,0.5v0.7c2-1.1,3.9-1.7,5.8-1.7c4.2,0,6.3,2.5,6.3,7.5V41.9
	z"/>
<path fill="#F15E22" d="M186.2,24.6c0,0.4-0.2,0.6-0.7,0.7l-1.3,0.3c0.8,0.9,1.2,2.1,1.2,3.7v0.3c0,4.1-2.7,6.1-8.1,6.1
	c-1.7,0-3.1-0.2-4.2-0.7c-0.6,0.3-0.9,0.7-0.9,1.2c0,0.6,0.4,1,1.1,1.1l5.4,1.4c0.9,0.2,1.6,0.4,2.1,0.6c0.5,0.2,1.2,0.4,1.9,0.7
	c0.7,0.3,1.2,0.6,1.6,1c0.4,0.3,0.7,0.8,1,1.3s0.4,1.1,0.4,1.8v0.3c0,3.7-2.8,5.6-8.3,5.6c-2.8,0-4.9-0.5-6.3-1.5
	c-1.4-1-2.1-2.4-2.1-4.2v-0.3c0-1.9,0.8-3.4,2.3-4.6l-0.3-0.1c-1.1-0.5-1.7-1.4-1.7-2.8v0c0-1.2,0.5-2,1.5-2.6
	c-1.1-1-1.7-2.4-1.7-4.2v-0.3c0-1.8,0.6-3.4,1.9-4.6c1.3-1.2,3.3-1.8,6.2-1.8h8c0.2,0,0.4,0.1,0.6,0.2c0.2,0.2,0.3,0.3,0.3,0.6V24.6
	z M182.6,44.2v-0.3c0-0.7-0.3-1.2-0.9-1.6c-0.6-0.4-1.8-0.8-3.5-1.2l-4.1-1c-0.6,0.5-1.1,1-1.3,1.6c-0.3,0.5-0.4,1.2-0.4,2.1v0.3
	c0,1.1,0.4,1.9,1.2,2.4c0.8,0.6,2.1,0.8,4.1,0.8c2,0,3.3-0.3,4-0.8C182.2,46.1,182.6,45.3,182.6,44.2z M182.3,29.5v-0.3
	c0-1.2-0.4-2.1-1.1-2.8c-0.7-0.7-2-1-3.8-1c-1.9,0-3.2,0.3-3.9,1c-0.7,0.7-1.1,1.6-1.1,2.8v0.3c0,2.4,1.6,3.7,4.9,3.7
	c1.8,0,3.1-0.3,3.8-1C181.9,31.6,182.3,30.7,182.3,29.5z"/>
</svg>
