<?xml version="1.0" encoding="utf-8"?>
<!-- Generator: Adobe Illustrator 19.1.0, SVG Export Plug-In . SVG Version: 6.00 Build 0)  -->
<svg version="1.1" id="Layer_1" xmlns="http://www.w3.org/2000/svg" xmlns:xlink="http://www.w3.org/1999/xlink" x="0px" y="0px"
	 viewBox="0 0 412.0441 102.7842" enable-background="new 0 0 412.0441 102.7842" xml:space="preserve">
<g>
	<path fill="#F15E22" d="M124.9769,26.1088h4.8398v11.4531l-0.1191,5.1914c2.5977-2.3008,5.7851-4.0117,8.9726-4.0117
		c7.4355,0,11.3906,5.7226,11.3906,14.5781c0,9.7968-5.8437,15.5234-12.3945,15.5234c-2.6563,0-5.666-1.3008-8.2031-3.543h-0.1777
		l-0.4141,2.832h-3.8945V26.1088z M136.8402,64.7689c4.7207,0,8.2031-4.3086,8.2031-11.3906c0-6.3164-2.125-10.5664-7.5547-10.5664
		c-2.4199,0-4.957,1.3594-7.6719,3.8984v15.0468C132.3539,63.9407,134.9515,64.7689,136.8402,64.7689z"/>
	<path fill="#F15E22" d="M156.8382,30.4174c0-1.8867,1.4746-3.125,3.3633-3.125c1.8887,0,3.3652,1.2383,3.3652,3.125
		c0,1.832-1.4766,3.1289-3.3652,3.1289C158.3128,33.5463,156.8382,32.2494,156.8382,30.4174z M157.7229,39.4486h4.8398v28.6835
		h-4.8398V39.4486z"/>
	<path fill="#F15E22" d="M172.2385,39.4486h4.0137l0.4121,4.1328h0.1777c2.7148-2.7148,5.666-4.8398,9.6211-4.8398
		c6.0195,0,8.7343,3.8945,8.7343,11.2148v18.1757h-4.8398V50.6048c0-5.3711-1.6523-7.6719-5.4297-7.6719
		c-2.9512,0-4.957,1.5312-7.8496,4.4258v20.7734h-4.8398V39.4486z"/>
	<path fill="#F15E22" d="M214.8985,38.7416c3.3066,0,5.4902,1.2383,8.0273,3.3047l-0.2363-4.8984v-11.039h4.8984v42.0233h-4.0117
		l-0.4141-3.3633h-0.1777c-2.2422,2.1836-5.3105,4.0742-8.6758,4.0742c-7.1992,0-11.8633-5.4297-11.8633-14.9921
		C202.4454,44.5267,208.3478,38.7416,214.8985,38.7416z M215.3712,64.7689c2.6562,0,4.959-1.2969,7.3183-3.9531V45.8236
		c-2.4199-2.1836-4.6035-3.0117-6.9629-3.0117c-4.6055,0-8.2637,4.4297-8.2637,10.9804
		C207.463,60.6361,210.3556,64.7689,215.3712,64.7689z"/>
	<path fill="#F15E22" d="M236.375,30.4174c0-1.8867,1.4746-3.125,3.3633-3.125c1.8887,0,3.3652,1.2383,3.3652,3.125
		c0,1.832-1.4766,3.1289-3.3652,3.1289C237.8497,33.5463,236.375,32.2494,236.375,30.4174z M237.2598,39.4486h4.8398v28.6835
		h-4.8398V39.4486z"/>
	<path fill="#F15E22" d="M251.7734,39.4486h4.0137l0.4121,4.1328h0.1777c2.7148-2.7148,5.666-4.8398,9.6211-4.8398
		c6.0195,0,8.7343,3.8945,8.7343,11.2148v18.1757h-4.8398V50.6048c0-5.3711-1.6523-7.6719-5.4297-7.6719
		c-2.9512,0-4.957,1.5312-7.8496,4.4258v20.7734h-4.8398V39.4486z"/>
	<path fill="#F15E22" d="M286.0546,67.1282v-0.2344c-1.416-0.8867-2.5371-2.4219-2.5371-4.664c0-2.418,1.6523-4.3086,3.1289-5.3125
		v-0.2344c-1.8887-1.5352-3.7188-4.3086-3.7188-7.7304c0-6.2578,4.957-10.2109,10.8008-10.2109c1.5938,0,3.0098,0.293,4.0723,0.707
		h9.9746v3.7187h-5.9023c1.3574,1.2969,2.3613,3.4805,2.3613,5.9023c0,6.1367-4.664,9.9726-10.5058,9.9726
		c-1.416,0-3.0098-0.3516-4.3086-1c-1.0039,0.8828-1.8301,1.8281-1.8301,3.4219c0,1.8281,1.1797,3.1289,5.0761,3.1289h5.5469
		c6.6699,0,10.0351,2.0664,10.0351,6.8437c0,5.3125-5.6074,9.9179-14.5195,9.9179c-7.0234,0-11.8633-2.7734-11.8633-7.7344
		C281.8651,71.2024,283.4589,68.9017,286.0546,67.1282z M294.4354,77.9915c5.4902,0,9.0898-2.8359,9.0898-5.8437
		c0-2.6562-2.0664-3.543-5.7832-3.543h-4.959c-1.1211,0-2.4785-0.1172-3.7168-0.4727c-2.0664,1.4766-2.9512,3.1875-2.9512,4.8398
		C286.1151,76.0423,289.2421,77.9915,294.4354,77.9915z M299.8065,48.9525c0-4.1914-2.7148-6.6719-6.0781-6.6719
		c-3.3652,0-6.08,2.4805-6.08,6.6719c0,4.1875,2.7754,6.8437,6.08,6.8437S299.8065,53.14,299.8065,48.9525z"/>
</g>
<polyline fill="#F15E22" points="94.6432,68.5243 114.4451,68.4788 109.4721,77.088 79.8015,77.0879 109.4725,25.6962 
	109.4725,25.6962 114.4178,34.2615 109.4746,42.8303 94.6409,68.523 "/>
<polyline fill="#F15E22" points="69.9086,59.9527 79.7942,42.827 84.7392,51.3925 69.904,77.0875 40.2336,25.6968 99.5745,25.6968 
	94.6294,34.2619 55.0729,34.2618 69.9063,59.9541 "/>
</svg>
