<?xml version="1.0" encoding="utf-8"?>
<!-- Generator: Adobe Illustrator 19.1.0, SVG Export Plug-In . SVG Version: 6.00 Build 0)  -->
<svg version="1.1" id="Layer_1" xmlns="http://www.w3.org/2000/svg" xmlns:xlink="http://www.w3.org/1999/xlink" x="0px" y="0px"
	 viewBox="0 0 90.708664 22.677166" enable-background="new 0 0 90.708664 22.677166" xml:space="preserve">
<polygon fill="#F25C05" points="12.998981,17.105768 16.663229,10.75904 15.441837,8.643465 12.998943,12.874616 9.334697,6.527889 
	19.106123,6.527889 20.327551,4.412313 5.670412,4.412313 "/>
<polygon fill="#F25C05" points="25.213264,17.105898 23.991837,14.990321 19.106123,14.990322 23.991837,6.527889 
	22.770407,4.412313 15.441837,17.105898 "/>
<g>
	<path fill="#F25C05" d="M27.670473,4.567586h1.700195v2.69043l-0.044434,1.212891
		c0.606445-0.532227,1.360352-0.902344,2.099609-0.902344c1.81885,0,2.868654,1.449219,2.868654,3.681641
		c0,2.499023-1.493652,3.933594-3.105471,3.933594c-0.665039,0-1.375-0.325195-1.980957-0.916992h-0.044434l-0.147949,0.739258
		h-1.345215V4.567586z M30.834536,13.778524c0.960938,0,1.700197-0.857422,1.700197-2.498047
		c0-1.449219-0.473145-2.306641-1.567385-2.306641c-0.532227,0-1.034668,0.265625-1.59668,0.8125v3.386719
		C29.888247,13.616415,30.405825,13.778524,30.834536,13.778524z"/>
	<path fill="#F25C05" d="M35.816471,5.513875c0-0.577148,0.443359-0.976563,1.049805-0.976563
		c0.605957,0,1.049805,0.399414,1.049805,0.976563c0,0.561523-0.443848,0.960938-1.049805,0.960938
		C36.25983,6.474813,35.816471,6.075399,35.816471,5.513875z M36.008854,7.746297h1.700195v7.259766h-1.700195V7.746297z"/>
	<path fill="#F25C05" d="M39.882389,7.746297h1.404297l0.118164,0.975586h0.05957
		c0.650391-0.635742,1.389648-1.153321,2.380371-1.153321c1.552246,0,2.232422,1.049805,2.232422,2.88379v4.553711h-1.700195
		v-4.332031c0-1.198242-0.339844-1.641602-1.138672-1.641602c-0.635742,0-1.049805,0.310547-1.655762,0.902344v5.071289h-1.700195
		V7.746297z"/>
	<path fill="#F25C05" d="M50.793522,7.568563c0.827637,0,1.345215,0.310547,1.907227,0.798829l-0.059082-1.167969V4.567586h1.700195
		v10.438477h-1.404785l-0.118164-0.783203H52.75983c-0.532227,0.532227-1.271484,0.960938-2.055176,0.960938
		c-1.818848,0-2.986816-1.405273-2.986816-3.799805C47.717838,9.017782,49.211491,7.568563,50.793522,7.568563z
		 M51.118717,13.778524c0.561523,0,1.034668-0.250977,1.522949-0.8125V9.579306
		c-0.50293-0.443359-0.990723-0.605469-1.478516-0.605469c-0.931641,0-1.685547,0.87207-1.685547,2.394531
		C49.477604,12.935751,50.068913,13.778524,51.118717,13.778524z"/>
	<path fill="#F25C05" d="M56.307682,5.513875c0-0.577148,0.443359-0.976563,1.049805-0.976563
		c0.605957,0,1.049805,0.399414,1.049805,0.976563c0,0.561523-0.443848,0.960938-1.049805,0.960938
		C56.751041,6.474813,56.307682,6.075399,56.307682,5.513875z M56.500065,7.746297h1.700195v7.259766h-1.700195V7.746297z"/>
	<path fill="#F25C05" d="M60.373112,7.746297h1.404297l0.118652,0.975586h0.059082
		c0.650391-0.635742,1.389648-1.153321,2.380367-1.153321c1.552246,0,2.232422,1.049805,2.232422,2.88379v4.553711h-1.700195
		v-4.332031c0-1.198242-0.339844-1.641602-1.138668-1.641602c-0.635742,0-1.049805,0.310547-1.655762,0.902344v5.071289h-1.700195
		V7.746297z"/>
	<path fill="#F25C05" d="M69.19928,14.769735v-0.05957c-0.369629-0.236328-0.650391-0.621094-0.650391-1.211914
		c0-0.5625,0.384277-1.049805,0.79834-1.345703v-0.05957c-0.488281-0.369141-0.946289-1.064453-0.946289-1.921875
		c0-1.670898,1.345215-2.60254,2.868164-2.60254c0.399414,0,0.769043,0.074219,1.064941,0.177734h2.602051v1.256836H73.60553
		c0.236328,0.28125,0.414063,0.724609,0.414063,1.227539c0,1.611328-1.212402,2.46875-2.750488,2.46875
		c-0.310547,0-0.665039-0.05957-0.990723-0.192383c-0.22168,0.192383-0.354492,0.370117-0.354492,0.695313
		c0,0.414063,0.29541,0.665039,1.182617,0.665039h1.286621c1.744629,0,2.661133,0.532227,2.661133,1.789063
		c0,1.43457-1.507813,2.558594-3.873535,2.558594c-1.72998,0-3.016602-0.621094-3.016602-1.892578
		C68.164124,15.716024,68.533752,15.183798,69.19928,14.769735z M71.446838,17.105673
		c1.167969,0,1.966309-0.546875,1.966309-1.167969c0-0.561523-0.458496-0.724609-1.286133-0.724609h-0.990723
		c-0.399414,0-0.709961-0.029297-0.990723-0.103516c-0.384277,0.295898-0.562012,0.621094-0.562012,0.960938
		C69.583557,16.720907,70.293518,17.105673,71.446838,17.105673z M72.52594,10.171103c0-0.902344-0.546875-1.43457-1.256836-1.43457
		c-0.709473,0-1.271484,0.517578-1.271484,1.43457c0,0.931641,0.562012,1.463867,1.271484,1.463867
		C71.964417,11.63497,72.52594,11.102743,72.52594,10.171103z"/>
</g>
</svg>
